<svg width="264" height="28" viewBox="0 0 264 28" fill="none" xmlns="http://www.w3.org/2000/svg">
<path d="M5.52879 23.8256H18.7569V27.7243H0V24.2194L13.1872 4.25317H0V0.35443H18.7569V3.85935L5.52879 23.8256ZM36.8429 28C34.1945 28 31.7509 27.4093 29.5121 26.2278C27.3006 25.0202 25.5396 23.353 24.2291 21.2264C22.9458 19.0736 22.3042 16.6582 22.3042 13.9803C22.3042 11.3024 22.9458 8.90014 24.2291 6.77356C25.5396 4.64698 27.3006 2.99297 29.5121 1.81153C31.7509 0.603846 34.1945 0 36.8429 0C39.5185 0 41.9621 0.603846 44.1736 1.81153C46.4125 2.99297 48.1735 4.64698 49.4567 6.77356C50.7399 8.90014 51.3815 11.3024 51.3815 13.9803C51.3815 16.6582 50.7399 19.0736 49.4567 21.2264C48.1735 23.353 46.4125 25.0202 44.1736 26.2278C41.9621 27.4093 39.5185 28 36.8429 28ZM36.8429 24.1013C38.7268 24.1013 40.4059 23.6943 41.8802 22.8804C43.3546 22.0403 44.5013 20.8589 45.3203 19.3361C46.1667 17.7872 46.5899 16.0019 46.5899 13.9803C46.5899 11.9587 46.1667 10.1866 45.3203 8.66385C44.5013 7.14112 43.3546 5.97281 41.8802 5.15893C40.4059 4.34506 38.7268 3.93812 36.8429 3.93812C34.959 3.93812 33.2799 4.34506 31.8055 5.15893C30.3312 5.97281 29.1708 7.14112 28.3244 8.66385C27.5054 10.1866 27.0958 11.9587 27.0958 13.9803C27.0958 16.0019 27.5054 17.7872 28.3244 19.3361C29.1708 20.8589 30.3312 22.0403 31.8055 22.8804C33.2799 23.6943 34.959 24.1013 36.8429 24.1013ZM60.6445 3.9775V12.0113H70.4735V15.6737H60.6445V24.0619H71.7021V27.7243H55.9758V0.315049H71.7021V3.9775H60.6445ZM82.1214 3.9775V12.0113H91.9503V15.6737H82.1214V24.0619H93.179V27.7243H77.4526V0.315049H93.179V3.9775H82.1214ZM119.529 8.23066C118.792 6.86545 117.768 5.84154 116.457 5.15893C115.147 4.45007 113.632 4.09564 111.912 4.09564C110.028 4.09564 108.349 4.50258 106.874 5.31646C105.4 6.13033 104.24 7.28551 103.393 8.782C102.574 10.2785 102.165 12.0113 102.165 13.9803C102.165 15.9494 102.574 17.6953 103.393 19.218C104.24 20.7145 105.4 21.8697 106.874 22.6835C108.349 23.4974 110.028 23.9044 111.912 23.9044C114.451 23.9044 116.512 23.2218 118.096 21.8565C119.679 20.4913 120.648 18.6404 121.003 16.3038H110.314V12.7201H126V16.225C125.699 18.3516 124.908 20.3075 123.624 22.0928C122.369 23.8781 120.717 25.309 118.669 26.3854C116.649 27.4355 114.396 27.9606 111.912 27.9606C109.236 27.9606 106.792 27.3699 104.581 26.1885C102.369 24.9808 100.608 23.3136 99.2978 21.1871C98.0146 19.0605 97.3732 16.6582 97.3732 13.9803C97.3732 11.3024 98.0146 8.90014 99.2978 6.77356C100.608 4.64698 102.369 2.99297 104.581 1.81153C106.82 0.603846 109.263 0 111.912 0C114.942 0 117.632 0.72199 119.98 2.16597C122.355 3.58369 124.075 5.60525 125.14 8.23066H119.529ZM147.765 22.1322H135.847L133.8 27.7243H128.926L139.124 0.315049H144.529L154.727 27.7243H149.813L147.765 22.1322ZM146.454 18.4698L141.827 5.74965L137.158 18.4698H146.454ZM163.83 24.1013H173.454V27.7243H159.161V0.35443H163.83V24.1013ZM182.027 24.1013H191.651V27.7243H177.358V0.35443H182.027V24.1013ZM200.224 3.9775V12.0113H210.053V15.6737H200.224V24.0619H211.282V27.7243H195.555V0.315049H211.282V3.9775H200.224ZM231.816 27.7243L225.263 16.7764H221.7V27.7243H217.032V0.35443H226.861C229.045 0.35443 230.888 0.72199 232.389 1.4571C233.918 2.19222 235.051 3.17675 235.789 4.41069C236.553 5.64463 236.935 7.02297 236.935 8.54571C236.935 10.331 236.389 11.9587 235.297 13.429C234.232 14.8729 232.581 15.8575 230.342 16.3826L237.386 27.7243H231.816ZM221.7 13.1927H226.861C228.608 13.1927 229.919 12.7726 230.792 11.9325C231.693 11.0924 232.144 9.96343 232.144 8.54571C232.144 7.12799 231.707 6.02532 230.833 5.23769C229.959 4.42382 228.635 4.01688 226.861 4.01688H221.7V13.1927ZM264 0.35443L254.581 17.8003V27.7243H249.912V17.8003L240.451 0.35443H245.653L252.246 13.7834L258.84 0.35443H264Z" fill="#424242"/>
</svg>
